<svg width="408" height="188" viewBox="0 0 408 188" fill="none" xmlns="http://www.w3.org/2000/svg">
<rect width="408" height="188" fill="#FBFCFD"/>
<path d="M42 118C37.5817 118 34 114.418 34 110L34 84C34 79.5817 37.5817 76 42 76L180 76L180 110C180 114.418 176.418 118 172 118L42 118Z" fill="#DF2F7F"/>
<path d="M57 70C57 65.5817 60.5817 62 65 62H172C176.418 62 180 65.5817 180 70V82H57V70Z" fill="#DF2F7F"/>
<path d="M80 26C80 21.5817 83.5817 18 88 18H129C133.418 18 137 21.5817 137 26V68H80V26Z" fill="#DF2F7F"/>
<path d="M80 118H137V158C137 162.418 133.418 166 129 166H88C83.5817 166 80 162.418 80 158V118Z" fill="#DF2F7F"/>
<rect x="60.8145" y="115.712" width="86.0632" height="48.8557" rx="24.4279" transform="rotate(-50 60.8145 115.712)" fill="#DF2F7F"/>
<rect x="68.4238" y="115.583" width="76.156" height="37.3561" rx="18.6781" transform="rotate(-50 68.4238 115.583)" fill="white"/>
<path d="M96.1838 90.208L109.365 74.4995C114.231 68.7008 122.876 67.9444 128.674 72.8102C134.473 77.6759 135.23 86.3211 130.364 92.1198L117.183 107.828L96.1838 90.208Z" fill="#DF2F7F"/>
<rect x="55" y="39" width="12" height="12" rx="2" fill="#DF2F7F"/>
<rect x="40" y="51" width="12" height="12" rx="2" fill="#DF2F7F"/>
<rect x="39" y="32" width="9" height="9" rx="2" fill="#DF2F7F"/>
<rect x="25" y="42" width="9" height="9" rx="2" fill="#DF2F7F"/>
<rect x="27" y="60" width="9" height="9" rx="2" fill="#DF2F7F"/>
<path d="M239.094 51.3835C237.126 51.3835 235.425 50.9744 233.994 50.1562C232.57 49.3295 231.475 48.1619 230.708 46.6534C229.941 45.1364 229.558 43.3509 229.558 41.2969C229.558 39.277 229.941 37.5043 230.708 35.9787C231.484 34.4446 232.566 33.2514 233.955 32.3991C235.344 31.5384 236.977 31.108 238.852 31.108C240.062 31.108 241.204 31.304 242.278 31.696C243.36 32.0795 244.315 32.6761 245.141 33.4858C245.977 34.2955 246.633 35.3267 247.11 36.5795C247.587 37.8239 247.826 39.3068 247.826 41.0284V42.4474H231.731V39.3281H243.39C243.381 38.4418 243.19 37.6534 242.815 36.9631C242.44 36.2642 241.915 35.7145 241.242 35.3139C240.577 34.9134 239.802 34.7131 238.915 34.7131C237.969 34.7131 237.138 34.9432 236.423 35.4034C235.707 35.8551 235.148 36.4517 234.748 37.1932C234.356 37.9261 234.156 38.7315 234.147 39.6094V42.3324C234.147 43.4744 234.356 44.4545 234.773 45.2727C235.191 46.0824 235.775 46.7045 236.525 47.1392C237.275 47.5653 238.153 47.7784 239.158 47.7784C239.832 47.7784 240.441 47.6847 240.987 47.4972C241.532 47.3011 242.005 47.0156 242.406 46.6406C242.806 46.2656 243.109 45.8011 243.313 45.2472L247.634 45.733C247.362 46.875 246.842 47.8722 246.075 48.7244C245.316 49.5682 244.344 50.2244 243.16 50.6932C241.975 51.1534 240.62 51.3835 239.094 51.3835ZM263.643 38.1903V42H251.856V38.1903H263.643Z" fill="#DF2F7F"/>
<path d="M268.715 51V24.8182H285.488V28.794H273.458V35.902H284.337V39.8778H273.458V51H268.715ZM295.079 51.3963C293.835 51.3963 292.714 51.1747 291.717 50.7315C290.728 50.2798 289.944 49.6151 289.365 48.7372C288.794 47.8594 288.508 46.777 288.508 45.4901C288.508 44.3821 288.713 43.4659 289.122 42.7415C289.531 42.017 290.089 41.4375 290.797 41.0028C291.504 40.5682 292.301 40.2401 293.187 40.0185C294.082 39.7884 295.007 39.6222 295.961 39.5199C297.112 39.4006 298.045 39.294 298.761 39.2003C299.477 39.098 299.997 38.9446 300.321 38.7401C300.653 38.527 300.819 38.1989 300.819 37.7557V37.679C300.819 36.7159 300.534 35.9702 299.963 35.4418C299.392 34.9134 298.569 34.6491 297.495 34.6491C296.362 34.6491 295.463 34.8963 294.798 35.3906C294.142 35.8849 293.699 36.4687 293.468 37.142L289.147 36.5284C289.488 35.3352 290.051 34.3381 290.835 33.5369C291.619 32.7273 292.578 32.1222 293.711 31.7216C294.845 31.3125 296.098 31.108 297.47 31.108C298.416 31.108 299.358 31.2188 300.295 31.4403C301.233 31.6619 302.089 32.0284 302.865 32.5398C303.64 33.0426 304.262 33.7287 304.731 34.598C305.208 35.4673 305.447 36.554 305.447 37.858V51H300.998V48.3026H300.845C300.564 48.848 300.167 49.3594 299.656 49.8366C299.153 50.3054 298.518 50.6847 297.751 50.9744C296.993 51.2557 296.102 51.3963 295.079 51.3963ZM296.281 47.9957C297.21 47.9957 298.015 47.8125 298.697 47.446C299.379 47.071 299.903 46.5767 300.27 45.9631C300.645 45.3494 300.832 44.6804 300.832 43.956V41.642C300.687 41.7614 300.44 41.8722 300.091 41.9744C299.75 42.0767 299.366 42.1662 298.94 42.2429C298.514 42.3196 298.092 42.3878 297.674 42.4474C297.257 42.5071 296.895 42.5582 296.588 42.6009C295.897 42.6946 295.279 42.848 294.734 43.0611C294.189 43.2741 293.758 43.5724 293.443 43.956C293.127 44.331 292.97 44.8168 292.97 45.4134C292.97 46.2656 293.281 46.9091 293.903 47.3438C294.525 47.7784 295.318 47.9957 296.281 47.9957ZM310.1 51V31.3636H314.588V34.6364H314.792C315.15 33.5028 315.764 32.6293 316.633 32.0156C317.511 31.3935 318.512 31.0824 319.637 31.0824C319.893 31.0824 320.179 31.0952 320.494 31.1207C320.818 31.1378 321.086 31.1676 321.299 31.2102V35.4673C321.103 35.3991 320.792 35.3395 320.366 35.2884C319.949 35.2287 319.544 35.1989 319.152 35.1989C318.308 35.1989 317.549 35.3821 316.876 35.7486C316.211 36.1065 315.687 36.6051 315.304 37.2443C314.92 37.8835 314.728 38.6207 314.728 39.456V51H310.1ZM324.374 51V31.3636H328.797V34.7003H329.027C329.436 33.5753 330.114 32.6974 331.06 32.0668C332.006 31.4276 333.135 31.108 334.448 31.108C335.777 31.108 336.898 31.4318 337.81 32.0795C338.73 32.7187 339.378 33.5923 339.753 34.7003H339.958C340.392 33.6094 341.125 32.7401 342.157 32.0923C343.196 31.4361 344.428 31.108 345.851 31.108C347.658 31.108 349.132 31.679 350.275 32.821C351.417 33.9631 351.988 35.6293 351.988 37.8196V51H347.347V38.5355C347.347 37.3168 347.023 36.4261 346.375 35.8636C345.728 35.2926 344.935 35.0071 343.998 35.0071C342.881 35.0071 342.007 35.3565 341.377 36.0554C340.755 36.7457 340.444 37.6449 340.444 38.7528V51H335.905V38.3438C335.905 37.3295 335.598 36.5199 334.985 35.9148C334.38 35.3097 333.587 35.0071 332.607 35.0071C331.942 35.0071 331.337 35.1776 330.792 35.5185C330.246 35.8509 329.811 36.3239 329.488 36.9375C329.164 37.5426 329.002 38.25 329.002 39.0597V51H324.374ZM362.333 51.3963C361.089 51.3963 359.968 51.1747 358.971 50.7315C357.982 50.2798 357.198 49.6151 356.619 48.7372C356.048 47.8594 355.762 46.777 355.762 45.4901C355.762 44.3821 355.967 43.4659 356.376 42.7415C356.785 42.017 357.343 41.4375 358.05 41.0028C358.758 40.5682 359.555 40.2401 360.441 40.0185C361.336 39.7884 362.261 39.6222 363.215 39.5199C364.366 39.4006 365.299 39.294 366.015 39.2003C366.731 39.098 367.251 38.9446 367.575 38.7401C367.907 38.527 368.073 38.1989 368.073 37.7557V37.679C368.073 36.7159 367.788 35.9702 367.217 35.4418C366.646 34.9134 365.823 34.6491 364.749 34.6491C363.616 34.6491 362.717 34.8963 362.052 35.3906C361.396 35.8849 360.952 36.4687 360.722 37.142L356.401 36.5284C356.742 35.3352 357.305 34.3381 358.089 33.5369C358.873 32.7273 359.832 32.1222 360.965 31.7216C362.099 31.3125 363.352 31.108 364.724 31.108C365.67 31.108 366.612 31.2188 367.549 31.4403C368.487 31.6619 369.343 32.0284 370.119 32.5398C370.894 33.0426 371.516 33.7287 371.985 34.598C372.462 35.4673 372.701 36.554 372.701 37.858V51H368.252V48.3026H368.099C367.817 48.848 367.421 49.3594 366.91 49.8366C366.407 50.3054 365.772 50.6847 365.005 50.9744C364.246 51.2557 363.356 51.3963 362.333 51.3963ZM363.535 47.9957C364.464 47.9957 365.269 47.8125 365.951 47.446C366.633 47.071 367.157 46.5767 367.523 45.9631C367.898 45.3494 368.086 44.6804 368.086 43.956V41.642C367.941 41.7614 367.694 41.8722 367.344 41.9744C367.004 42.0767 366.62 42.1662 366.194 42.2429C365.768 42.3196 365.346 42.3878 364.928 42.4474C364.511 42.5071 364.148 42.5582 363.842 42.6009C363.151 42.6946 362.533 42.848 361.988 43.0611C361.442 43.2741 361.012 43.5724 360.697 43.956C360.381 44.331 360.224 44.8168 360.224 45.4134C360.224 46.2656 360.535 46.9091 361.157 47.3438C361.779 47.7784 362.572 47.9957 363.535 47.9957Z" fill="#E03081"/>
<path d="M260.315 79.4492C260.066 77.1232 259.018 75.3121 257.172 74.016C255.343 72.7198 252.964 72.0717 250.034 72.0717C247.974 72.0717 246.208 72.3825 244.734 73.0039C243.26 73.6254 242.133 74.4687 241.352 75.5341C240.57 76.5994 240.171 77.8157 240.153 79.1829C240.153 80.3192 240.41 81.3047 240.925 82.1392C241.458 82.9737 242.177 83.6839 243.083 84.2699C243.988 84.8381 244.991 85.3175 246.092 85.7081C247.193 86.0987 248.303 86.4272 249.421 86.6935L254.535 87.9719C256.595 88.4513 258.575 89.0994 260.474 89.9162C262.392 90.733 264.105 91.7628 265.615 93.0057C267.142 94.2486 268.349 95.7489 269.237 97.5067C270.125 99.2646 270.568 101.324 270.568 103.686C270.568 106.882 269.752 109.696 268.118 112.129C266.485 114.543 264.123 116.434 261.034 117.801C257.962 119.151 254.242 119.826 249.874 119.826C245.631 119.826 241.946 119.169 238.821 117.855C235.714 116.541 233.282 114.623 231.524 112.102C229.784 109.581 228.843 106.509 228.701 102.887H238.422C238.564 104.787 239.15 106.367 240.18 107.627C241.209 108.888 242.55 109.829 244.201 110.451C245.87 111.072 247.735 111.383 249.794 111.383C251.943 111.383 253.825 111.063 255.441 110.424C257.074 109.767 258.353 108.862 259.276 107.707C260.199 106.536 260.67 105.168 260.687 103.606C260.67 102.185 260.252 101.013 259.436 100.09C258.619 99.1491 257.474 98.3679 256 97.7464C254.544 97.1072 252.839 96.5391 250.886 96.0419L244.681 94.4439C240.189 93.2898 236.637 91.5408 234.027 89.1971C231.435 86.8356 230.139 83.7017 230.139 79.7955C230.139 76.5817 231.009 73.7674 232.749 71.3526C234.507 68.9379 236.895 67.0646 239.913 65.733C242.932 64.3835 246.35 63.7088 250.167 63.7088C254.038 63.7088 257.429 64.3835 260.341 65.733C263.271 67.0646 265.57 68.9201 267.239 71.2994C268.908 73.6609 269.769 76.3775 269.823 79.4492H260.315ZM313.761 64.4545H323.642V100.09C323.642 103.996 322.719 107.432 320.873 110.397C319.044 113.363 316.469 115.68 313.149 117.349C309.829 119 305.949 119.826 301.51 119.826C297.053 119.826 293.165 119 289.845 117.349C286.524 115.68 283.95 113.363 282.121 110.397C280.292 107.432 279.378 103.996 279.378 100.09V64.4545H289.259V99.2646C289.259 101.537 289.756 103.561 290.75 105.337C291.762 107.113 293.183 108.506 295.011 109.518C296.84 110.513 299.006 111.01 301.51 111.01C304.014 111.01 306.18 110.513 308.009 109.518C309.855 108.506 311.276 107.113 312.27 105.337C313.264 103.561 313.761 101.537 313.761 99.2646V64.4545ZM364.026 79.4492C363.777 77.1232 362.729 75.3121 360.883 74.016C359.054 72.7198 356.675 72.0717 353.745 72.0717C351.685 72.0717 349.919 72.3825 348.445 73.0039C346.971 73.6254 345.844 74.4687 345.062 75.5341C344.281 76.5994 343.882 77.8157 343.864 79.1829C343.864 80.3192 344.121 81.3047 344.636 82.1392C345.169 82.9737 345.888 83.6839 346.794 84.2699C347.699 84.8381 348.702 85.3175 349.803 85.7081C350.904 86.0987 352.014 86.4272 353.132 86.6935L358.246 87.9719C360.306 88.4513 362.285 89.0994 364.185 89.9162C366.103 90.733 367.816 91.7628 369.326 93.0057C370.853 94.2486 372.06 95.7489 372.948 97.5067C373.836 99.2646 374.279 101.324 374.279 103.686C374.279 106.882 373.463 109.696 371.829 112.129C370.196 114.543 367.834 116.434 364.745 117.801C361.673 119.151 357.953 119.826 353.585 119.826C349.342 119.826 345.657 119.169 342.532 117.855C339.425 116.541 336.992 114.623 335.235 112.102C333.495 109.581 332.554 106.509 332.412 102.887H342.133C342.275 104.787 342.861 106.367 343.891 107.627C344.92 108.888 346.261 109.829 347.912 110.451C349.581 111.072 351.446 111.383 353.505 111.383C355.654 111.383 357.536 111.063 359.152 110.424C360.785 109.767 362.064 108.862 362.987 107.707C363.91 106.536 364.381 105.168 364.398 103.606C364.381 102.185 363.963 101.013 363.147 100.09C362.33 99.1491 361.185 98.3679 359.711 97.7464C358.255 97.1072 356.55 96.5391 354.597 96.0419L348.392 94.4439C343.899 93.2898 340.348 91.5408 337.738 89.1971C335.146 86.8356 333.85 83.7017 333.85 79.7955C333.85 76.5817 334.72 73.7674 336.46 71.3526C338.218 68.9379 340.606 67.0646 343.624 65.733C346.643 64.3835 350.061 63.7088 353.878 63.7088C357.749 63.7088 361.14 64.3835 364.052 65.733C366.982 67.0646 369.281 68.9201 370.95 71.2994C372.619 73.6609 373.48 76.3775 373.534 79.4492H364.026Z" fill="#DF2E7E"/>
<circle cx="227.5" cy="130.5" r="3.5" fill="#EC4899"/>
<circle cx="375.5" cy="130.5" r="3.5" fill="#EC4899"/>
<line x1="227.7" y1="130.5" x2="375.3" y2="130.5" stroke="#EC4899"/>
<path d="M228.724 146.565C228.647 146.315 228.541 146.092 228.405 145.895C228.273 145.695 228.113 145.524 227.925 145.383C227.741 145.241 227.528 145.135 227.288 145.064C227.048 144.99 226.786 144.953 226.503 144.953C225.996 144.953 225.543 145.081 225.146 145.337C224.749 145.592 224.437 145.968 224.209 146.463C223.984 146.955 223.872 147.556 223.872 148.263C223.872 148.978 223.984 149.582 224.209 150.078C224.434 150.573 224.746 150.95 225.146 151.209C225.546 151.464 226.011 151.592 226.54 151.592C227.02 151.592 227.436 151.5 227.787 151.315C228.141 151.13 228.413 150.869 228.604 150.53C228.795 150.189 228.89 149.788 228.89 149.33L229.278 149.39H226.711V148.051H230.547V149.187C230.547 149.996 230.375 150.696 230.03 151.287C229.686 151.878 229.212 152.334 228.608 152.654C228.005 152.971 227.313 153.129 226.531 153.129C225.66 153.129 224.895 152.934 224.237 152.543C223.581 152.149 223.069 151.59 222.699 150.867C222.333 150.141 222.15 149.279 222.15 148.282C222.15 147.519 222.258 146.837 222.473 146.237C222.692 145.637 222.996 145.127 223.387 144.709C223.778 144.287 224.237 143.967 224.763 143.749C225.289 143.527 225.862 143.416 226.48 143.416C227.003 143.416 227.491 143.493 227.944 143.647C228.396 143.798 228.798 144.013 229.149 144.293C229.503 144.573 229.793 144.906 230.021 145.29C230.249 145.675 230.398 146.1 230.469 146.565H228.724ZM232.204 153V143.545H238.353V144.981H233.916V147.548H238.034V148.984H233.916V151.564H238.39V153H232.204ZM245.238 146.145C245.195 145.741 245.013 145.427 244.693 145.203C244.376 144.978 243.964 144.866 243.456 144.866C243.099 144.866 242.793 144.92 242.538 145.027C242.282 145.135 242.087 145.281 241.951 145.466C241.816 145.651 241.747 145.861 241.743 146.098C241.743 146.295 241.788 146.466 241.877 146.611C241.97 146.755 242.094 146.879 242.251 146.98C242.408 147.079 242.582 147.162 242.773 147.229C242.964 147.297 243.156 147.354 243.35 147.4L244.236 147.622C244.593 147.705 244.937 147.817 245.266 147.959C245.598 148.1 245.895 148.279 246.157 148.494C246.422 148.71 246.631 148.97 246.785 149.275C246.939 149.579 247.015 149.936 247.015 150.346C247.015 150.9 246.874 151.387 246.591 151.809C246.308 152.228 245.898 152.555 245.363 152.792C244.83 153.026 244.186 153.143 243.428 153.143C242.693 153.143 242.054 153.029 241.513 152.801C240.974 152.574 240.552 152.241 240.248 151.804C239.946 151.367 239.783 150.835 239.758 150.207H241.443C241.468 150.536 241.57 150.81 241.748 151.029C241.927 151.247 242.159 151.41 242.445 151.518C242.734 151.626 243.058 151.68 243.415 151.68C243.787 151.68 244.113 151.624 244.393 151.513C244.676 151.4 244.898 151.243 245.058 151.043C245.218 150.839 245.3 150.603 245.303 150.332C245.3 150.085 245.227 149.882 245.086 149.722C244.944 149.559 244.746 149.424 244.49 149.316C244.238 149.205 243.942 149.107 243.604 149.021L242.528 148.744C241.75 148.544 241.134 148.24 240.682 147.834C240.232 147.425 240.008 146.882 240.008 146.205C240.008 145.647 240.158 145.16 240.46 144.741C240.765 144.323 241.179 143.998 241.702 143.767C242.225 143.533 242.818 143.416 243.479 143.416C244.15 143.416 244.738 143.533 245.243 143.767C245.751 143.998 246.149 144.319 246.438 144.732C246.728 145.141 246.877 145.612 246.886 146.145H245.238ZM248.127 144.981V143.545H255.67V144.981H252.748V153H251.049V144.981H248.127ZM257.196 153H255.368L258.696 143.545H260.811L264.144 153H262.316L259.79 145.484H259.717L257.196 153ZM257.256 149.293H262.242V150.669H257.256V149.293ZM258.401 142.613L257.385 142.59C257.385 142.042 257.527 141.613 257.81 141.302C258.096 140.991 258.446 140.836 258.858 140.836C259.058 140.836 259.232 140.869 259.38 140.937C259.53 141.002 259.667 141.077 259.79 141.163C259.914 141.25 260.035 141.326 260.155 141.394C260.275 141.459 260.408 141.491 260.552 141.491C260.728 141.491 260.866 141.425 260.968 141.293C261.072 141.16 261.126 140.991 261.129 140.785L262.122 140.826C262.119 141.377 261.976 141.805 261.692 142.11C261.409 142.411 261.063 142.564 260.654 142.567C260.429 142.567 260.241 142.534 260.091 142.47C259.94 142.402 259.807 142.325 259.693 142.239C259.583 142.153 259.47 142.077 259.356 142.013C259.243 141.945 259.109 141.911 258.955 141.911C258.792 141.911 258.658 141.976 258.553 142.105C258.452 142.234 258.401 142.404 258.401 142.613ZM273.393 148.273C273.393 149.291 273.202 150.164 272.82 150.89C272.442 151.614 271.925 152.167 271.269 152.552C270.617 152.937 269.877 153.129 269.049 153.129C268.221 153.129 267.479 152.937 266.824 152.552C266.171 152.164 265.654 151.609 265.273 150.886C264.894 150.159 264.705 149.288 264.705 148.273C264.705 147.254 264.894 146.383 265.273 145.66C265.654 144.933 266.171 144.378 266.824 143.993C267.479 143.609 268.221 143.416 269.049 143.416C269.877 143.416 270.617 143.609 271.269 143.993C271.925 144.378 272.442 144.933 272.82 145.66C273.202 146.383 273.393 147.254 273.393 148.273ZM271.671 148.273C271.671 147.556 271.559 146.951 271.334 146.458C271.112 145.963 270.805 145.589 270.411 145.337C270.017 145.081 269.563 144.953 269.049 144.953C268.535 144.953 268.081 145.081 267.687 145.337C267.293 145.589 266.984 145.963 266.759 146.458C266.537 146.951 266.427 147.556 266.427 148.273C266.427 148.99 266.537 149.596 266.759 150.092C266.984 150.584 267.293 150.958 267.687 151.213C268.081 151.466 268.535 151.592 269.049 151.592C269.563 151.592 270.017 151.466 270.411 151.213C270.805 150.958 271.112 150.584 271.334 150.092C271.559 149.596 271.671 148.99 271.671 148.273ZM278.237 153V143.545H284.294V144.981H279.949V147.548H283.878V148.984H279.949V153H278.237ZM285.887 153H284.059L287.388 143.545H289.502L292.835 153H291.007L288.482 145.484H288.408L285.887 153ZM285.947 149.293H290.933V150.669H285.947V149.293ZM294.08 153V143.545H297.626C298.352 143.545 298.962 143.672 299.454 143.924C299.95 144.176 300.323 144.53 300.576 144.986C300.831 145.438 300.959 145.966 300.959 146.569C300.959 147.176 300.83 147.702 300.571 148.148C300.316 148.591 299.939 148.934 299.44 149.178C298.942 149.418 298.329 149.538 297.603 149.538H295.078V148.116H297.372C297.797 148.116 298.145 148.057 298.415 147.94C298.686 147.82 298.886 147.646 299.015 147.419C299.148 147.188 299.214 146.905 299.214 146.569C299.214 146.234 299.148 145.948 299.015 145.711C298.883 145.471 298.682 145.289 298.411 145.166C298.14 145.04 297.791 144.977 297.363 144.977H295.793V153H294.08ZM298.965 148.716L301.305 153H299.394L297.095 148.716H298.965ZM302.536 143.545H304.631L307.438 150.396H307.549L310.356 143.545H312.452V153H310.808V146.505H310.721L308.108 152.972H306.88L304.267 146.491H304.179V153H302.536V143.545ZM315.531 153H313.703L317.031 143.545H319.146L322.479 153H320.651L318.125 145.484H318.052L315.531 153ZM315.591 149.293H320.577V150.669H315.591V149.293ZM331.372 146.735H329.646C329.597 146.452 329.506 146.201 329.373 145.983C329.241 145.761 329.076 145.574 328.879 145.42C328.683 145.266 328.458 145.15 328.205 145.074C327.956 144.993 327.687 144.953 327.398 144.953C326.884 144.953 326.428 145.083 326.031 145.341C325.634 145.597 325.323 145.972 325.099 146.468C324.874 146.96 324.762 147.562 324.762 148.273C324.762 148.996 324.874 149.605 325.099 150.101C325.326 150.593 325.637 150.966 326.031 151.218C326.428 151.467 326.882 151.592 327.393 151.592C327.676 151.592 327.941 151.555 328.187 151.481C328.436 151.404 328.659 151.292 328.856 151.144C329.056 150.996 329.224 150.815 329.36 150.599C329.498 150.384 329.593 150.138 329.646 149.861L331.372 149.87C331.308 150.319 331.168 150.741 330.952 151.135C330.74 151.529 330.461 151.877 330.117 152.178C329.772 152.477 329.369 152.711 328.907 152.88C328.446 153.046 327.933 153.129 327.37 153.129C326.539 153.129 325.797 152.937 325.145 152.552C324.492 152.167 323.978 151.612 323.603 150.886C323.227 150.159 323.04 149.288 323.04 148.273C323.04 147.254 323.229 146.383 323.607 145.66C323.986 144.933 324.502 144.378 325.154 143.993C325.806 143.609 326.545 143.416 327.37 143.416C327.896 143.416 328.386 143.49 328.838 143.638C329.29 143.786 329.694 144.002 330.047 144.289C330.401 144.572 330.692 144.92 330.92 145.332C331.151 145.741 331.302 146.209 331.372 146.735ZM332.941 153V143.545H339.09V144.981H334.654V147.548H338.771V148.984H334.654V151.564H339.127V153H332.941ZM336.957 142.696L336.02 141.514L335.083 142.696H333.619V142.631L335.369 140.637H336.676L338.421 142.631V142.696H336.957ZM346.797 143.545H348.51V149.722C348.51 150.399 348.35 150.995 348.03 151.509C347.713 152.023 347.267 152.424 346.691 152.714C346.115 153 345.443 153.143 344.674 153.143C343.901 153.143 343.227 153 342.652 152.714C342.076 152.424 341.63 152.023 341.313 151.509C340.996 150.995 340.837 150.399 340.837 149.722V143.545H342.55V149.579C342.55 149.973 342.636 150.324 342.809 150.632C342.984 150.94 343.23 151.181 343.547 151.357C343.864 151.529 344.24 151.615 344.674 151.615C345.108 151.615 345.483 151.529 345.8 151.357C346.12 151.181 346.366 150.94 346.539 150.632C346.711 150.324 346.797 149.973 346.797 149.579V143.545ZM349.956 144.981V143.545H357.499V144.981H354.577V153H352.878V144.981H349.956ZM360.666 143.545V153H358.954V143.545H360.666ZM370.614 146.735H368.887C368.838 146.452 368.747 146.201 368.615 145.983C368.482 145.761 368.318 145.574 368.121 145.42C367.924 145.266 367.699 145.15 367.447 145.074C367.197 144.993 366.928 144.953 366.639 144.953C366.125 144.953 365.669 145.083 365.272 145.341C364.875 145.597 364.564 145.972 364.34 146.468C364.115 146.96 364.003 147.562 364.003 148.273C364.003 148.996 364.115 149.605 364.34 150.101C364.568 150.593 364.878 150.966 365.272 151.218C365.669 151.467 366.123 151.592 366.634 151.592C366.917 151.592 367.182 151.555 367.428 151.481C367.678 151.404 367.901 151.292 368.098 151.144C368.298 150.996 368.465 150.815 368.601 150.599C368.739 150.384 368.835 150.138 368.887 149.861L370.614 149.87C370.549 150.319 370.409 150.741 370.193 151.135C369.981 151.529 369.703 151.877 369.358 152.178C369.013 152.477 368.61 152.711 368.148 152.88C367.687 153.046 367.174 153.129 366.611 153.129C365.78 153.129 365.038 152.937 364.386 152.552C363.734 152.167 363.22 151.612 362.844 150.886C362.469 150.159 362.281 149.288 362.281 148.273C362.281 147.254 362.47 146.383 362.849 145.66C363.227 144.933 363.743 144.378 364.395 143.993C365.048 143.609 365.786 143.416 366.611 143.416C367.137 143.416 367.627 143.49 368.079 143.638C368.532 143.786 368.935 144.002 369.289 144.289C369.643 144.572 369.933 144.92 370.161 145.332C370.392 145.741 370.543 146.209 370.614 146.735ZM373.282 153H371.454L374.782 143.545H376.897L380.23 153H378.402L375.876 145.484H375.803L373.282 153ZM373.342 149.293H378.328V150.669H373.342V149.293ZM233.975 159.545V169H232.451L227.996 162.56H227.918V169H226.205V159.545H227.738L232.188 165.99H232.271V159.545H233.975ZM237.055 169H235.227L238.555 159.545H240.67L244.003 169H242.175L239.649 161.484H239.575L237.055 169ZM237.115 165.293H242.101V166.669H237.115V165.293ZM249.687 169H247.859L251.187 159.545H253.301L256.634 169H254.806L252.281 161.484H252.207L249.687 169ZM249.747 165.293H254.733V166.669H249.747V165.293ZM256.322 160.981V159.545H263.865V160.981H260.943V169H259.244V160.981H256.322ZM265.319 169V159.545H271.468V160.981H267.032V163.548H271.15V164.984H267.032V167.564H271.505V169H265.319ZM280.985 159.545V169H279.462L275.007 162.56H274.928V169H273.216V159.545H274.748L279.199 165.99H279.282V159.545H280.985ZM290.944 162.735H289.218C289.168 162.452 289.078 162.201 288.945 161.983C288.813 161.761 288.648 161.574 288.451 161.42C288.254 161.266 288.03 161.15 287.777 161.074C287.528 160.993 287.259 160.953 286.969 160.953C286.455 160.953 286 161.083 285.603 161.341C285.206 161.597 284.895 161.972 284.67 162.468C284.446 162.96 284.333 163.562 284.333 164.273C284.333 164.996 284.446 165.605 284.67 166.101C284.898 166.593 285.209 166.966 285.603 167.218C286 167.467 286.454 167.592 286.965 167.592C287.248 167.592 287.513 167.555 287.759 167.481C288.008 167.404 288.231 167.292 288.428 167.144C288.628 166.996 288.796 166.815 288.931 166.599C289.07 166.384 289.165 166.138 289.218 165.861L290.944 165.87C290.88 166.319 290.739 166.741 290.524 167.135C290.312 167.529 290.033 167.877 289.688 168.178C289.344 168.477 288.941 168.711 288.479 168.88C288.017 169.046 287.505 169.129 286.942 169.129C286.111 169.129 285.369 168.937 284.717 168.552C284.064 168.167 283.55 167.612 283.175 166.886C282.799 166.159 282.611 165.288 282.611 164.273C282.611 163.254 282.801 162.383 283.179 161.66C283.558 160.933 284.073 160.378 284.726 159.993C285.378 159.609 286.117 159.416 286.942 159.416C287.468 159.416 287.957 159.49 288.41 159.638C288.862 159.786 289.265 160.002 289.619 160.289C289.973 160.572 290.264 160.92 290.492 161.332C290.723 161.741 290.873 162.209 290.944 162.735ZM286.457 168.991H287.362L287.288 169.383C287.577 169.426 287.822 169.537 288.022 169.716C288.225 169.897 288.327 170.157 288.327 170.496C288.33 170.933 288.134 171.284 287.74 171.548C287.346 171.813 286.785 171.945 286.055 171.945L286.037 171.124C286.391 171.124 286.672 171.076 286.882 170.98C287.091 170.888 287.197 170.74 287.2 170.537C287.206 170.34 287.132 170.196 286.979 170.103C286.828 170.014 286.588 169.953 286.258 169.919L286.457 168.991ZM293.612 169H291.784L295.113 159.545H297.227L300.56 169H298.732L296.207 161.484H296.133L293.612 169ZM293.672 165.293H298.658V166.669H293.672V165.293ZM294.817 158.613L293.802 158.59C293.802 158.042 293.943 157.613 294.226 157.302C294.513 156.991 294.862 156.836 295.274 156.836C295.474 156.836 295.648 156.869 295.796 156.937C295.947 157.002 296.084 157.077 296.207 157.163C296.33 157.25 296.452 157.326 296.572 157.394C296.692 157.459 296.824 157.491 296.969 157.491C297.144 157.491 297.283 157.425 297.384 157.293C297.489 157.16 297.543 156.991 297.546 156.785L298.538 156.826C298.535 157.377 298.392 157.805 298.109 158.11C297.826 158.411 297.48 158.564 297.07 158.567C296.846 158.567 296.658 158.534 296.507 158.47C296.356 158.402 296.224 158.325 296.11 158.239C295.999 158.153 295.887 158.077 295.773 158.013C295.659 157.945 295.525 157.911 295.371 157.911C295.208 157.911 295.074 157.976 294.97 158.105C294.868 158.234 294.817 158.404 294.817 158.613ZM309.809 164.273C309.809 165.291 309.619 166.164 309.237 166.89C308.858 167.614 308.341 168.167 307.686 168.552C307.033 168.937 306.293 169.129 305.465 169.129C304.637 169.129 303.896 168.937 303.24 168.552C302.588 168.164 302.071 167.609 301.689 166.886C301.31 166.159 301.121 165.288 301.121 164.273C301.121 163.254 301.31 162.383 301.689 161.66C302.071 160.933 302.588 160.378 303.24 159.993C303.896 159.609 304.637 159.416 305.465 159.416C306.293 159.416 307.033 159.609 307.686 159.993C308.341 160.378 308.858 160.933 309.237 161.66C309.619 162.383 309.809 163.254 309.809 164.273ZM308.087 164.273C308.087 163.556 307.975 162.951 307.75 162.458C307.529 161.963 307.221 161.589 306.827 161.337C306.433 161.081 305.979 160.953 305.465 160.953C304.951 160.953 304.497 161.081 304.103 161.337C303.709 161.589 303.4 161.963 303.176 162.458C302.954 162.951 302.843 163.556 302.843 164.273C302.843 164.99 302.954 165.596 303.176 166.092C303.4 166.584 303.709 166.958 304.103 167.213C304.497 167.466 304.951 167.592 305.465 167.592C305.979 167.592 306.433 167.466 306.827 167.213C307.221 166.958 307.529 166.584 307.75 166.092C307.975 165.596 308.087 164.99 308.087 164.273ZM314.653 169V159.545H318.199C318.925 159.545 319.534 159.681 320.027 159.952C320.522 160.223 320.896 160.595 321.149 161.069C321.404 161.54 321.532 162.075 321.532 162.675C321.532 163.282 321.404 163.82 321.149 164.291C320.893 164.762 320.516 165.133 320.018 165.404C319.519 165.672 318.905 165.805 318.176 165.805H315.826V164.397H317.945C318.369 164.397 318.717 164.324 318.988 164.176C319.259 164.028 319.459 163.825 319.588 163.566C319.721 163.308 319.787 163.011 319.787 162.675C319.787 162.34 319.721 162.045 319.588 161.789C319.459 161.534 319.257 161.335 318.983 161.194C318.713 161.049 318.363 160.977 317.936 160.977H316.366V169H314.653ZM323.019 169V159.545H326.565C327.291 159.545 327.901 159.672 328.393 159.924C328.889 160.176 329.262 160.53 329.515 160.986C329.77 161.438 329.898 161.966 329.898 162.569C329.898 163.176 329.769 163.702 329.51 164.148C329.255 164.591 328.878 164.934 328.379 165.178C327.881 165.418 327.268 165.538 326.542 165.538H324.017V164.116H326.311C326.736 164.116 327.083 164.057 327.354 163.94C327.625 163.82 327.825 163.646 327.954 163.419C328.087 163.188 328.153 162.905 328.153 162.569C328.153 162.234 328.087 161.948 327.954 161.711C327.822 161.471 327.621 161.289 327.35 161.166C327.079 161.04 326.73 160.977 326.302 160.977H324.732V169H323.019ZM327.904 164.716L330.244 169H328.333L326.034 164.716H327.904ZM333.187 159.545V169H331.475V159.545H333.187ZM335.042 159.545H337.138L339.945 166.396H340.055L342.862 159.545H344.958V169H343.315V162.505H343.227L340.614 168.972H339.386L336.773 162.491H336.685V169H335.042V159.545ZM348.037 169H346.209L349.538 159.545H351.652L354.985 169H353.157L350.632 161.484H350.558L348.037 169ZM348.097 165.293H353.083V166.669H348.097V165.293ZM349.953 158.613L350.987 156.503H352.621L351.204 158.613H349.953ZM356.23 169V159.545H359.776C360.502 159.545 361.112 159.672 361.604 159.924C362.099 160.176 362.473 160.53 362.726 160.986C362.981 161.438 363.109 161.966 363.109 162.569C363.109 163.176 362.98 163.702 362.721 164.148C362.466 164.591 362.089 164.934 361.59 165.178C361.092 165.418 360.479 165.538 359.753 165.538H357.228V164.116H359.522C359.947 164.116 360.294 164.057 360.565 163.94C360.836 163.82 361.036 163.646 361.165 163.419C361.298 163.188 361.364 162.905 361.364 162.569C361.364 162.234 361.298 161.948 361.165 161.711C361.033 161.471 360.831 161.289 360.561 161.166C360.29 161.04 359.94 160.977 359.513 160.977H357.943V169H356.23ZM361.115 164.716L363.455 169H361.544L359.245 164.716H361.115ZM366.398 159.545V169H364.685V159.545H366.398ZM369.467 169H367.639L370.967 159.545H373.082L376.415 169H374.587L372.061 161.484H371.988L369.467 169ZM369.527 165.293H374.513V166.669H369.527V165.293Z" fill="#E03081"/>
</svg>
