<svg width="408" height="188" viewBox="0 0 408 188" fill="none" xmlns="http://www.w3.org/2000/svg">
<path d="M42 118C37.5817 118 34 114.418 34 110L34 84C34 79.5817 37.5817 76 42 76L180 76L180 110C180 114.418 176.418 118 172 118L42 118Z" fill="#03469B"/>
<path d="M57 70C57 65.5817 60.5817 62 65 62H172C176.418 62 180 65.5817 180 70V82H57V70Z" fill="#03469B"/>
<path d="M80 26C80 21.5817 83.5817 18 88 18H129C133.418 18 137 21.5817 137 26V68H80V26Z" fill="#03469B"/>
<path d="M80 118H137V158C137 162.418 133.418 166 129 166H88C83.5817 166 80 162.418 80 158V118Z" fill="#3B8FE6"/>
<rect x="60.8146" y="115.712" width="86.0632" height="48.8557" rx="24.4279" transform="rotate(-50 60.8146 115.712)" fill="#03459A"/>
<rect x="68.4238" y="115.583" width="76.156" height="37.3561" rx="18.6781" transform="rotate(-50 68.4238 115.583)" fill="white"/>
<path d="M96.1838 90.208L109.365 74.4995C114.231 68.7008 122.876 67.9444 128.674 72.8101V72.8101C134.473 77.6759 135.23 86.3211 130.364 92.1198L117.183 107.828L96.1838 90.208Z" fill="#03469B"/>
<rect x="55" y="39" width="12" height="12" rx="2" fill="#3B8FE6"/>
<rect x="40" y="51" width="12" height="12" rx="2" fill="#03469B"/>
<rect x="39" y="32" width="9" height="9" rx="2" fill="#03469B"/>
<rect x="25" y="42" width="9" height="9" rx="2" fill="#03469B"/>
<rect x="27" y="60" width="9" height="9" rx="2" fill="#03469B"/>
<path d="M239.094 51.3835C237.126 51.3835 235.425 50.9744 233.994 50.1562C232.57 49.3295 231.475 48.1619 230.708 46.6534C229.941 45.1364 229.558 43.3509 229.558 41.2969C229.558 39.277 229.941 37.5043 230.708 35.9787C231.484 34.4446 232.566 33.2514 233.955 32.3991C235.344 31.5384 236.977 31.108 238.852 31.108C240.062 31.108 241.204 31.304 242.278 31.696C243.36 32.0795 244.315 32.6761 245.141 33.4858C245.977 34.2955 246.633 35.3267 247.11 36.5795C247.587 37.8239 247.826 39.3068 247.826 41.0284V42.4474H231.731V39.3281H243.39C243.381 38.4418 243.19 37.6534 242.815 36.9631C242.44 36.2642 241.915 35.7145 241.242 35.3139C240.577 34.9134 239.802 34.7131 238.915 34.7131C237.969 34.7131 237.138 34.9432 236.423 35.4034C235.707 35.8551 235.148 36.4517 234.748 37.1932C234.356 37.9261 234.156 38.7315 234.147 39.6094V42.3324C234.147 43.4744 234.356 44.4545 234.773 45.2727C235.191 46.0824 235.775 46.7045 236.525 47.1392C237.275 47.5653 238.153 47.7784 239.158 47.7784C239.832 47.7784 240.441 47.6847 240.987 47.4972C241.532 47.3011 242.005 47.0156 242.406 46.6406C242.806 46.2656 243.109 45.8011 243.313 45.2472L247.634 45.733C247.362 46.875 246.842 47.8722 246.075 48.7244C245.316 49.5682 244.344 50.2244 243.16 50.6932C241.975 51.1534 240.62 51.3835 239.094 51.3835ZM263.643 38.1903V42H251.856V38.1903H263.643Z" fill="#3B8FE6"/>
<path d="M268.715 51V24.8182H285.488V28.794H273.458V35.902H284.337V39.8778H273.458V51H268.715ZM295.079 51.3963C293.835 51.3963 292.714 51.1747 291.717 50.7315C290.728 50.2798 289.944 49.6151 289.365 48.7372C288.794 47.8594 288.508 46.777 288.508 45.4901C288.508 44.3821 288.713 43.4659 289.122 42.7415C289.531 42.017 290.089 41.4375 290.797 41.0028C291.504 40.5682 292.301 40.2401 293.187 40.0185C294.082 39.7884 295.007 39.6222 295.961 39.5199C297.112 39.4006 298.045 39.294 298.761 39.2003C299.477 39.098 299.997 38.9446 300.321 38.7401C300.653 38.527 300.819 38.1989 300.819 37.7557V37.679C300.819 36.7159 300.534 35.9702 299.963 35.4418C299.392 34.9134 298.569 34.6491 297.495 34.6491C296.362 34.6491 295.463 34.8963 294.798 35.3906C294.142 35.8849 293.699 36.4687 293.468 37.142L289.147 36.5284C289.488 35.3352 290.051 34.3381 290.835 33.5369C291.619 32.7273 292.578 32.1222 293.711 31.7216C294.845 31.3125 296.098 31.108 297.47 31.108C298.416 31.108 299.358 31.2188 300.295 31.4403C301.233 31.6619 302.089 32.0284 302.865 32.5398C303.64 33.0426 304.262 33.7287 304.731 34.598C305.208 35.4673 305.447 36.554 305.447 37.858V51H300.998V48.3026H300.845C300.564 48.848 300.167 49.3594 299.656 49.8366C299.153 50.3054 298.518 50.6847 297.751 50.9744C296.993 51.2557 296.102 51.3963 295.079 51.3963ZM296.281 47.9957C297.21 47.9957 298.015 47.8125 298.697 47.446C299.379 47.071 299.903 46.5767 300.27 45.9631C300.645 45.3494 300.832 44.6804 300.832 43.956V41.642C300.687 41.7614 300.44 41.8722 300.091 41.9744C299.75 42.0767 299.366 42.1662 298.94 42.2429C298.514 42.3196 298.092 42.3878 297.674 42.4474C297.257 42.5071 296.895 42.5582 296.588 42.6009C295.897 42.6946 295.279 42.848 294.734 43.0611C294.189 43.2741 293.758 43.5724 293.443 43.956C293.127 44.331 292.97 44.8168 292.97 45.4134C292.97 46.2656 293.281 46.9091 293.903 47.3438C294.525 47.7784 295.318 47.9957 296.281 47.9957ZM310.1 51V31.3636H314.588V34.6364H314.792C315.15 33.5028 315.764 32.6293 316.633 32.0156C317.511 31.3935 318.512 31.0824 319.637 31.0824C319.893 31.0824 320.179 31.0952 320.494 31.1207C320.818 31.1378 321.086 31.1676 321.299 31.2102V35.4673C321.103 35.3991 320.792 35.3395 320.366 35.2884C319.949 35.2287 319.544 35.1989 319.152 35.1989C318.308 35.1989 317.549 35.3821 316.876 35.7486C316.211 36.1065 315.687 36.6051 315.304 37.2443C314.92 37.8835 314.728 38.6207 314.728 39.456V51H310.1ZM324.374 51V31.3636H328.797V34.7003H329.027C329.436 33.5753 330.114 32.6974 331.06 32.0668C332.006 31.4276 333.135 31.108 334.448 31.108C335.777 31.108 336.898 31.4318 337.81 32.0795C338.73 32.7187 339.378 33.5923 339.753 34.7003H339.958C340.392 33.6094 341.125 32.7401 342.157 32.0923C343.196 31.4361 344.428 31.108 345.851 31.108C347.658 31.108 349.132 31.679 350.275 32.821C351.417 33.9631 351.988 35.6293 351.988 37.8196V51H347.347V38.5355C347.347 37.3168 347.023 36.4261 346.375 35.8636C345.728 35.2926 344.935 35.0071 343.998 35.0071C342.881 35.0071 342.007 35.3565 341.377 36.0554C340.755 36.7457 340.444 37.6449 340.444 38.7528V51H335.905V38.3438C335.905 37.3295 335.598 36.5199 334.985 35.9148C334.38 35.3097 333.587 35.0071 332.607 35.0071C331.942 35.0071 331.337 35.1776 330.792 35.5185C330.246 35.8509 329.811 36.3239 329.488 36.9375C329.164 37.5426 329.002 38.25 329.002 39.0597V51H324.374ZM362.333 51.3963C361.089 51.3963 359.968 51.1747 358.971 50.7315C357.982 50.2798 357.198 49.6151 356.619 48.7372C356.048 47.8594 355.762 46.777 355.762 45.4901C355.762 44.3821 355.967 43.4659 356.376 42.7415C356.785 42.017 357.343 41.4375 358.05 41.0028C358.758 40.5682 359.555 40.2401 360.441 40.0185C361.336 39.7884 362.261 39.6222 363.215 39.5199C364.366 39.4006 365.299 39.294 366.015 39.2003C366.731 39.098 367.251 38.9446 367.575 38.7401C367.907 38.527 368.073 38.1989 368.073 37.7557V37.679C368.073 36.7159 367.788 35.9702 367.217 35.4418C366.646 34.9134 365.823 34.6491 364.749 34.6491C363.616 34.6491 362.717 34.8963 362.052 35.3906C361.396 35.8849 360.952 36.4687 360.722 37.142L356.401 36.5284C356.742 35.3352 357.305 34.3381 358.089 33.5369C358.873 32.7273 359.832 32.1222 360.965 31.7216C362.099 31.3125 363.352 31.108 364.724 31.108C365.67 31.108 366.612 31.2188 367.549 31.4403C368.487 31.6619 369.343 32.0284 370.119 32.5398C370.894 33.0426 371.516 33.7287 371.985 34.598C372.462 35.4673 372.701 36.554 372.701 37.858V51H368.252V48.3026H368.099C367.817 48.848 367.421 49.3594 366.91 49.8366C366.407 50.3054 365.772 50.6847 365.005 50.9744C364.246 51.2557 363.356 51.3963 362.333 51.3963ZM363.535 47.9957C364.464 47.9957 365.269 47.8125 365.951 47.446C366.633 47.071 367.157 46.5767 367.523 45.9631C367.898 45.3494 368.086 44.6804 368.086 43.956V41.642C367.941 41.7614 367.694 41.8722 367.344 41.9744C367.004 42.0767 366.62 42.1662 366.194 42.2429C365.768 42.3196 365.346 42.3878 364.928 42.4474C364.511 42.5071 364.148 42.5582 363.842 42.6009C363.151 42.6946 362.533 42.848 361.988 43.0611C361.442 43.2741 361.012 43.5724 360.697 43.956C360.381 44.331 360.224 44.8168 360.224 45.4134C360.224 46.2656 360.535 46.9091 361.157 47.3438C361.779 47.7784 362.572 47.9957 363.535 47.9957Z" fill="#00357E"/>
<path d="M260.315 79.4492C260.066 77.1232 259.018 75.3121 257.172 74.016C255.343 72.7198 252.964 72.0717 250.034 72.0717C247.974 72.0717 246.208 72.3825 244.734 73.0039C243.26 73.6254 242.133 74.4687 241.352 75.5341C240.57 76.5994 240.171 77.8157 240.153 79.1829C240.153 80.3192 240.41 81.3047 240.925 82.1392C241.458 82.9737 242.177 83.6839 243.083 84.2699C243.988 84.8381 244.991 85.3175 246.092 85.7081C247.193 86.0987 248.303 86.4272 249.421 86.6935L254.535 87.9719C256.595 88.4513 258.575 89.0994 260.474 89.9162C262.392 90.733 264.105 91.7628 265.615 93.0057C267.142 94.2486 268.349 95.7489 269.237 97.5067C270.125 99.2646 270.568 101.324 270.568 103.686C270.568 106.882 269.752 109.696 268.118 112.129C266.485 114.543 264.123 116.434 261.034 117.801C257.962 119.151 254.242 119.826 249.874 119.826C245.631 119.826 241.946 119.169 238.821 117.855C235.714 116.541 233.282 114.623 231.524 112.102C229.784 109.581 228.843 106.509 228.701 102.887H238.422C238.564 104.787 239.15 106.367 240.18 107.627C241.209 108.888 242.55 109.829 244.201 110.451C245.87 111.072 247.735 111.383 249.794 111.383C251.943 111.383 253.825 111.063 255.441 110.424C257.074 109.767 258.353 108.862 259.276 107.707C260.199 106.536 260.67 105.168 260.687 103.606C260.67 102.185 260.252 101.013 259.436 100.09C258.619 99.1491 257.474 98.3679 256 97.7464C254.544 97.1072 252.839 96.5391 250.886 96.0419L244.681 94.4439C240.189 93.2898 236.637 91.5408 234.027 89.1971C231.435 86.8356 230.139 83.7017 230.139 79.7955C230.139 76.5817 231.009 73.7674 232.749 71.3526C234.507 68.9379 236.895 67.0646 239.913 65.733C242.932 64.3835 246.35 63.7088 250.167 63.7088C254.038 63.7088 257.429 64.3835 260.341 65.733C263.271 67.0646 265.57 68.9201 267.239 71.2994C268.908 73.6609 269.769 76.3775 269.823 79.4492H260.315ZM313.761 64.4545H323.642V100.09C323.642 103.996 322.719 107.432 320.873 110.397C319.044 113.363 316.469 115.68 313.149 117.349C309.829 119 305.949 119.826 301.51 119.826C297.053 119.826 293.165 119 289.845 117.349C286.524 115.68 283.95 113.363 282.121 110.397C280.292 107.432 279.378 103.996 279.378 100.09V64.4545H289.259V99.2646C289.259 101.537 289.756 103.561 290.75 105.337C291.762 107.113 293.183 108.506 295.011 109.518C296.84 110.513 299.006 111.01 301.51 111.01C304.014 111.01 306.18 110.513 308.009 109.518C309.855 108.506 311.276 107.113 312.27 105.337C313.264 103.561 313.761 101.537 313.761 99.2646V64.4545ZM364.026 79.4492C363.777 77.1232 362.729 75.3121 360.883 74.016C359.054 72.7198 356.675 72.0717 353.745 72.0717C351.685 72.0717 349.919 72.3825 348.445 73.0039C346.971 73.6254 345.844 74.4687 345.062 75.5341C344.281 76.5994 343.882 77.8157 343.864 79.1829C343.864 80.3192 344.121 81.3047 344.636 82.1392C345.169 82.9737 345.888 83.6839 346.794 84.2699C347.699 84.8381 348.702 85.3175 349.803 85.7081C350.904 86.0987 352.014 86.4272 353.132 86.6935L358.246 87.9719C360.306 88.4513 362.285 89.0994 364.185 89.9162C366.103 90.733 367.816 91.7628 369.326 93.0057C370.853 94.2486 372.06 95.7489 372.948 97.5067C373.836 99.2646 374.279 101.324 374.279 103.686C374.279 106.882 373.463 109.696 371.829 112.129C370.196 114.543 367.834 116.434 364.745 117.801C361.673 119.151 357.953 119.826 353.585 119.826C349.342 119.826 345.657 119.169 342.532 117.855C339.425 116.541 336.992 114.623 335.235 112.102C333.495 109.581 332.554 106.509 332.412 102.887H342.133C342.275 104.787 342.861 106.367 343.891 107.627C344.92 108.888 346.261 109.829 347.912 110.451C349.581 111.072 351.446 111.383 353.505 111.383C355.654 111.383 357.536 111.063 359.152 110.424C360.785 109.767 362.064 108.862 362.987 107.707C363.91 106.536 364.381 105.168 364.398 103.606C364.381 102.185 363.963 101.013 363.147 100.09C362.33 99.1491 361.185 98.3679 359.711 97.7464C358.255 97.1072 356.55 96.5391 354.597 96.0419L348.392 94.4439C343.899 93.2898 340.348 91.5408 337.738 89.1971C335.146 86.8356 333.85 83.7017 333.85 79.7955C333.85 76.5817 334.72 73.7674 336.46 71.3526C338.218 68.9379 340.606 67.0646 343.624 65.733C346.643 64.3835 350.061 63.7088 353.878 63.7088C357.749 63.7088 361.14 64.3835 364.052 65.733C366.982 67.0646 369.281 68.9201 370.95 71.2994C372.619 73.6609 373.48 76.3775 373.534 79.4492H364.026Z" fill="#01337B"/>
<path d="M228.15 127.5C229.566 127.5 230.8 128.792 230.8 130.5C230.8 132.208 229.566 133.5 228.15 133.5C226.735 133.5 225.5 132.208 225.5 130.5C225.5 128.792 226.735 127.5 228.15 127.5Z" fill="#3B8FE6" stroke="#3B8FE6"/>
<path d="M374.85 127.5C376.266 127.5 377.5 128.792 377.5 130.5C377.5 132.208 376.266 133.5 374.85 133.5C373.435 133.5 372.2 132.208 372.2 130.5C372.2 128.792 373.435 127.5 374.85 127.5Z" fill="#3B8FE6" stroke="#3B8FE6"/>
<line x1="227.7" y1="130.5" x2="375.3" y2="130.5" stroke="#3B8FE6"/>
<path d="M234.784 146.06C234.713 145.83 234.615 145.624 234.49 145.442C234.367 145.257 234.22 145.099 234.046 144.969C233.876 144.838 233.68 144.74 233.458 144.675C233.237 144.607 232.995 144.572 232.734 144.572C232.265 144.572 231.847 144.69 231.481 144.926C231.115 145.162 230.826 145.509 230.616 145.966C230.409 146.42 230.305 146.974 230.305 147.628C230.305 148.287 230.409 148.845 230.616 149.303C230.823 149.76 231.112 150.108 231.481 150.347C231.85 150.582 232.279 150.7 232.768 150.7C233.211 150.7 233.595 150.615 233.919 150.445C234.245 150.274 234.497 150.033 234.673 149.72C234.849 149.405 234.937 149.036 234.937 148.612L235.295 148.668H232.926V147.432H236.467V148.48C236.467 149.227 236.308 149.874 235.99 150.419C235.671 150.964 235.234 151.385 234.677 151.68C234.12 151.973 233.481 152.119 232.759 152.119C231.955 152.119 231.249 151.939 230.642 151.578C230.036 151.214 229.563 150.699 229.222 150.031C228.884 149.361 228.715 148.565 228.715 147.645C228.715 146.94 228.815 146.311 229.014 145.757C229.215 145.203 229.497 144.733 229.857 144.347C230.218 143.957 230.642 143.662 231.127 143.46C231.613 143.256 232.142 143.153 232.713 143.153C233.195 143.153 233.646 143.224 234.063 143.366C234.481 143.506 234.852 143.705 235.176 143.963C235.502 144.222 235.771 144.528 235.981 144.884C236.191 145.239 236.329 145.631 236.394 146.06H234.784ZM237.996 152V143.273H243.672V144.598H239.577V146.967H243.378V148.293H239.577V150.675H243.706V152H237.996ZM250.028 145.672C249.988 145.3 249.82 145.01 249.525 144.803C249.232 144.595 248.851 144.491 248.383 144.491C248.053 144.491 247.77 144.541 247.535 144.641C247.299 144.74 247.118 144.875 246.993 145.045C246.868 145.216 246.805 145.411 246.802 145.629C246.802 145.811 246.843 145.969 246.925 146.102C247.01 146.236 247.126 146.349 247.27 146.443C247.415 146.534 247.576 146.611 247.752 146.673C247.928 146.736 248.106 146.788 248.285 146.831L249.103 147.036C249.432 147.112 249.749 147.216 250.053 147.347C250.36 147.477 250.634 147.642 250.876 147.841C251.12 148.04 251.313 148.28 251.455 148.561C251.597 148.842 251.668 149.172 251.668 149.55C251.668 150.061 251.537 150.511 251.276 150.901C251.015 151.287 250.637 151.589 250.143 151.808C249.651 152.024 249.056 152.132 248.357 152.132C247.678 152.132 247.089 152.027 246.589 151.817C246.091 151.607 245.702 151.3 245.421 150.896C245.143 150.493 244.992 150.001 244.969 149.422H246.525C246.547 149.726 246.641 149.979 246.806 150.18C246.971 150.382 247.185 150.533 247.449 150.632C247.716 150.732 248.015 150.781 248.344 150.781C248.688 150.781 248.989 150.73 249.248 150.628C249.509 150.523 249.714 150.378 249.861 150.193C250.009 150.006 250.084 149.787 250.087 149.537C250.084 149.31 250.018 149.122 249.887 148.974C249.756 148.824 249.573 148.699 249.337 148.599C249.104 148.497 248.831 148.406 248.519 148.327L247.526 148.071C246.807 147.886 246.239 147.607 245.822 147.232C245.407 146.854 245.199 146.352 245.199 145.727C245.199 145.213 245.339 144.763 245.617 144.376C245.898 143.99 246.28 143.69 246.763 143.477C247.246 143.261 247.793 143.153 248.404 143.153C249.023 143.153 249.566 143.261 250.032 143.477C250.501 143.69 250.868 143.987 251.135 144.368C251.403 144.746 251.54 145.18 251.549 145.672H250.028ZM252.694 144.598V143.273H259.657V144.598H256.96V152H255.392V144.598H252.694ZM261.066 152H259.378L262.45 143.273H264.402L267.479 152H265.791L263.46 145.062H263.392L261.066 152ZM261.121 148.578H265.723V149.848H261.121V148.578ZM262.178 142.412L261.24 142.391C261.24 141.885 261.371 141.489 261.632 141.202C261.896 140.915 262.219 140.771 262.6 140.771C262.784 140.771 262.945 140.803 263.081 140.865C263.22 140.925 263.347 140.994 263.46 141.074C263.574 141.153 263.686 141.224 263.797 141.287C263.908 141.347 264.03 141.376 264.164 141.376C264.325 141.376 264.453 141.315 264.547 141.193C264.644 141.071 264.693 140.915 264.696 140.724L265.612 140.763C265.61 141.271 265.477 141.666 265.216 141.947C264.955 142.226 264.635 142.366 264.257 142.369C264.05 142.369 263.877 142.339 263.737 142.28C263.598 142.217 263.476 142.146 263.371 142.067C263.269 141.987 263.165 141.918 263.06 141.858C262.955 141.795 262.831 141.764 262.689 141.764C262.539 141.764 262.415 141.824 262.318 141.943C262.225 142.062 262.178 142.219 262.178 142.412ZM276.017 147.636C276.017 148.577 275.84 149.382 275.488 150.053C275.139 150.72 274.661 151.232 274.056 151.587C273.454 151.942 272.771 152.119 272.007 152.119C271.242 152.119 270.558 151.942 269.953 151.587C269.35 151.229 268.873 150.716 268.521 150.048C268.171 149.378 267.997 148.574 267.997 147.636C267.997 146.696 268.171 145.892 268.521 145.224C268.873 144.554 269.35 144.041 269.953 143.686C270.558 143.331 271.242 143.153 272.007 143.153C272.771 143.153 273.454 143.331 274.056 143.686C274.661 144.041 275.139 144.554 275.488 145.224C275.84 145.892 276.017 146.696 276.017 147.636ZM274.427 147.636C274.427 146.974 274.323 146.416 274.116 145.962C273.911 145.504 273.627 145.159 273.264 144.926C272.9 144.69 272.481 144.572 272.007 144.572C271.532 144.572 271.113 144.69 270.749 144.926C270.386 145.159 270.1 145.504 269.893 145.962C269.688 146.416 269.586 146.974 269.586 147.636C269.586 148.298 269.688 148.858 269.893 149.315C270.1 149.77 270.386 150.115 270.749 150.351C271.113 150.584 271.532 150.7 272.007 150.7C272.481 150.7 272.9 150.584 273.264 150.351C273.627 150.115 273.911 149.77 274.116 149.315C274.323 148.858 274.427 148.298 274.427 147.636ZM280.488 152V143.273H286.079V144.598H282.069V146.967H285.695V148.293H282.069V152H280.488ZM287.55 152H285.862L288.935 143.273H290.887L293.963 152H292.276L289.945 145.062H289.877L287.55 152ZM287.605 148.578H292.208V149.848H287.605V148.578ZM295.113 152V143.273H298.385C299.056 143.273 299.618 143.389 300.073 143.622C300.53 143.855 300.876 144.182 301.108 144.602C301.344 145.02 301.462 145.507 301.462 146.064C301.462 146.624 301.343 147.109 301.104 147.521C300.868 147.93 300.52 148.247 300.06 148.472C299.6 148.693 299.035 148.804 298.364 148.804H296.033V147.491H298.151C298.543 147.491 298.864 147.437 299.114 147.33C299.364 147.219 299.549 147.058 299.668 146.848C299.79 146.635 299.851 146.374 299.851 146.064C299.851 145.754 299.79 145.49 299.668 145.271C299.546 145.05 299.36 144.882 299.11 144.768C298.86 144.652 298.537 144.594 298.143 144.594H296.694V152H295.113ZM299.621 148.045L301.782 152H300.018L297.895 148.045H299.621ZM302.917 143.273H304.852L307.443 149.597H307.545L310.136 143.273H312.071V152H310.554V146.004H310.473L308.061 151.974H306.927L304.515 145.991H304.434V152H302.917V143.273ZM314.913 152H313.226L316.298 143.273H318.25L321.327 152H319.639L317.308 145.062H317.24L314.913 152ZM314.969 148.578H319.571V149.848H314.969V148.578ZM329.536 146.217H327.942C327.897 145.956 327.813 145.724 327.691 145.523C327.569 145.318 327.417 145.145 327.235 145.003C327.053 144.861 326.846 144.754 326.613 144.683C326.383 144.609 326.134 144.572 325.867 144.572C325.393 144.572 324.972 144.692 324.606 144.93C324.239 145.166 323.952 145.513 323.745 145.97C323.537 146.425 323.434 146.98 323.434 147.636C323.434 148.304 323.537 148.866 323.745 149.324C323.955 149.778 324.242 150.122 324.606 150.355C324.972 150.585 325.391 150.7 325.863 150.7C326.124 150.7 326.368 150.666 326.596 150.598C326.826 150.527 327.032 150.423 327.214 150.287C327.398 150.151 327.553 149.983 327.678 149.784C327.806 149.585 327.894 149.358 327.942 149.102L329.536 149.111C329.476 149.526 329.347 149.915 329.148 150.278C328.952 150.642 328.695 150.963 328.377 151.241C328.059 151.517 327.687 151.733 327.26 151.889C326.834 152.043 326.361 152.119 325.841 152.119C325.074 152.119 324.39 151.942 323.787 151.587C323.185 151.232 322.711 150.719 322.364 150.048C322.018 149.378 321.844 148.574 321.844 147.636C321.844 146.696 322.019 145.892 322.368 145.224C322.718 144.554 323.194 144.041 323.796 143.686C324.398 143.331 325.08 143.153 325.841 143.153C326.327 143.153 326.779 143.222 327.197 143.358C327.614 143.494 327.986 143.695 328.313 143.959C328.64 144.22 328.908 144.541 329.118 144.922C329.331 145.3 329.471 145.732 329.536 146.217ZM330.984 152V143.273H336.66V144.598H332.565V146.967H336.366V148.293H332.565V150.675H336.694V152H330.984ZM334.691 142.489L333.826 141.398L332.961 142.489H331.61V142.429L333.225 140.588H334.431L336.042 142.429V142.489H334.691ZM343.774 143.273H345.355V148.974C345.355 149.599 345.208 150.149 344.912 150.624C344.619 151.098 344.208 151.469 343.676 151.736C343.145 152 342.524 152.132 341.814 152.132C341.101 152.132 340.479 152 339.948 151.736C339.416 151.469 339.004 151.098 338.712 150.624C338.419 150.149 338.273 149.599 338.273 148.974V143.273H339.854V148.842C339.854 149.206 339.933 149.53 340.093 149.814C340.254 150.098 340.482 150.321 340.774 150.483C341.067 150.642 341.414 150.722 341.814 150.722C342.215 150.722 342.561 150.642 342.854 150.483C343.149 150.321 343.377 150.098 343.536 149.814C343.695 149.53 343.774 149.206 343.774 148.842V143.273ZM346.69 144.598V143.273H353.653V144.598H350.956V152H349.388V144.598H346.69ZM356.577 143.273V152H354.996V143.273H356.577ZM365.759 146.217H364.165C364.119 145.956 364.036 145.724 363.914 145.523C363.791 145.318 363.639 145.145 363.458 145.003C363.276 144.861 363.068 144.754 362.835 144.683C362.605 144.609 362.357 144.572 362.09 144.572C361.615 144.572 361.195 144.692 360.828 144.93C360.462 145.166 360.175 145.513 359.968 145.97C359.76 146.425 359.656 146.98 359.656 147.636C359.656 148.304 359.76 148.866 359.968 149.324C360.178 149.778 360.465 150.122 360.828 150.355C361.195 150.585 361.614 150.7 362.085 150.7C362.347 150.7 362.591 150.666 362.818 150.598C363.048 150.527 363.254 150.423 363.436 150.287C363.621 150.151 363.776 149.983 363.901 149.784C364.029 149.585 364.117 149.358 364.165 149.102L365.759 149.111C365.699 149.526 365.57 149.915 365.371 150.278C365.175 150.642 364.918 150.963 364.6 151.241C364.281 151.517 363.909 151.733 363.483 151.889C363.057 152.043 362.584 152.119 362.064 152.119C361.297 152.119 360.612 151.942 360.01 151.587C359.408 151.232 358.933 150.719 358.587 150.048C358.24 149.378 358.067 148.574 358.067 147.636C358.067 146.696 358.242 145.892 358.591 145.224C358.941 144.554 359.416 144.041 360.019 143.686C360.621 143.331 361.303 143.153 362.064 143.153C362.55 143.153 363.002 143.222 363.419 143.358C363.837 143.494 364.209 143.695 364.536 143.959C364.862 144.22 365.131 144.541 365.341 144.922C365.554 145.3 365.693 145.732 365.759 146.217ZM368.222 152H366.534L369.607 143.273H371.558L374.635 152H372.948L370.617 145.062H370.548L368.222 152ZM368.277 148.578H372.879V149.848H368.277V148.578ZM239.63 158.273V167H238.224L234.112 161.055H234.039V167H232.458V158.273H233.873L237.981 164.222H238.058V158.273H239.63ZM242.474 167H240.786L243.859 158.273H245.81L248.887 167H247.2L244.869 160.062H244.8L242.474 167ZM242.529 163.578H247.131V164.848H242.529V163.578ZM254.134 167H252.446L255.519 158.273H257.471L260.547 167H258.86L256.529 160.062H256.461L254.134 167ZM254.189 163.578H258.792V164.848H254.189V163.578ZM260.259 159.598V158.273H267.222V159.598H264.524V167H262.956V159.598H260.259ZM268.564 167V158.273H274.24V159.598H270.145V161.967H273.946V163.293H270.145V165.675H274.274V167H268.564ZM283.025 158.273V167H281.619L277.506 161.055H277.434V167H275.853V158.273H277.268L281.376 164.222H281.452V158.273H283.025ZM292.218 161.217H290.624C290.578 160.956 290.495 160.724 290.373 160.523C290.25 160.318 290.098 160.145 289.917 160.003C289.735 159.861 289.527 159.754 289.294 159.683C289.064 159.609 288.816 159.572 288.549 159.572C288.074 159.572 287.654 159.692 287.287 159.93C286.921 160.166 286.634 160.513 286.426 160.97C286.219 161.425 286.115 161.98 286.115 162.636C286.115 163.304 286.219 163.866 286.426 164.324C286.637 164.778 286.924 165.122 287.287 165.355C287.654 165.585 288.073 165.7 288.544 165.7C288.806 165.7 289.05 165.666 289.277 165.598C289.507 165.527 289.713 165.423 289.895 165.287C290.08 165.151 290.235 164.983 290.36 164.784C290.488 164.585 290.576 164.358 290.624 164.102L292.218 164.111C292.158 164.526 292.029 164.915 291.83 165.278C291.634 165.642 291.377 165.963 291.059 166.241C290.74 166.517 290.368 166.733 289.942 166.889C289.516 167.043 289.043 167.119 288.523 167.119C287.756 167.119 287.071 166.942 286.469 166.587C285.867 166.232 285.392 165.719 285.046 165.048C284.699 164.378 284.526 163.574 284.526 162.636C284.526 161.696 284.701 160.892 285.05 160.224C285.4 159.554 285.875 159.041 286.478 158.686C287.08 158.331 287.762 158.153 288.523 158.153C289.009 158.153 289.461 158.222 289.878 158.358C290.296 158.494 290.668 158.695 290.995 158.959C291.321 159.22 291.59 159.541 291.8 159.922C292.013 160.3 292.152 160.732 292.218 161.217ZM288.076 166.991H288.911L288.843 167.354C289.11 167.393 289.336 167.496 289.52 167.661C289.708 167.828 289.801 168.068 289.801 168.381C289.804 168.784 289.624 169.108 289.26 169.352C288.897 169.597 288.378 169.719 287.705 169.719L287.688 168.96C288.015 168.96 288.275 168.916 288.468 168.828C288.661 168.743 288.759 168.607 288.762 168.419C288.767 168.237 288.699 168.104 288.557 168.018C288.418 167.936 288.196 167.879 287.892 167.848L288.076 166.991ZM294.681 167H292.993L296.066 158.273H298.017L301.094 167H299.407L297.076 160.062H297.007L294.681 167ZM294.736 163.578H299.338V164.848H294.736V163.578ZM295.793 157.412L294.855 157.391C294.855 156.885 294.986 156.489 295.248 156.202C295.512 155.915 295.834 155.771 296.215 155.771C296.4 155.771 296.56 155.803 296.696 155.865C296.836 155.925 296.962 155.994 297.076 156.074C297.189 156.153 297.301 156.224 297.412 156.287C297.523 156.347 297.645 156.376 297.779 156.376C297.941 156.376 298.069 156.315 298.162 156.193C298.259 156.071 298.309 155.915 298.311 155.724L299.228 155.763C299.225 156.271 299.093 156.666 298.831 156.947C298.57 157.226 298.25 157.366 297.873 157.369C297.665 157.369 297.492 157.339 297.353 157.28C297.213 157.217 297.091 157.146 296.986 157.067C296.884 156.987 296.78 156.918 296.675 156.858C296.57 156.795 296.446 156.764 296.304 156.764C296.154 156.764 296.03 156.824 295.934 156.943C295.84 157.062 295.793 157.219 295.793 157.412ZM309.632 162.636C309.632 163.577 309.456 164.382 309.103 165.053C308.754 165.72 308.277 166.232 307.672 166.587C307.069 166.942 306.386 167.119 305.622 167.119C304.858 167.119 304.173 166.942 303.568 166.587C302.966 166.229 302.488 165.716 302.136 165.048C301.787 164.378 301.612 163.574 301.612 162.636C301.612 161.696 301.787 160.892 302.136 160.224C302.488 159.554 302.966 159.041 303.568 158.686C304.173 158.331 304.858 158.153 305.622 158.153C306.386 158.153 307.069 158.331 307.672 158.686C308.277 159.041 308.754 159.554 309.103 160.224C309.456 160.892 309.632 161.696 309.632 162.636ZM308.042 162.636C308.042 161.974 307.939 161.416 307.731 160.962C307.527 160.504 307.243 160.159 306.879 159.926C306.515 159.69 306.096 159.572 305.622 159.572C305.147 159.572 304.728 159.69 304.365 159.926C304.001 160.159 303.716 160.504 303.508 160.962C303.304 161.416 303.201 161.974 303.201 162.636C303.201 163.298 303.304 163.858 303.508 164.315C303.716 164.77 304.001 165.115 304.365 165.351C304.728 165.584 305.147 165.7 305.622 165.7C306.096 165.7 306.515 165.584 306.879 165.351C307.243 165.115 307.527 164.77 307.731 164.315C307.939 163.858 308.042 163.298 308.042 162.636ZM314.103 167V158.273H317.376C318.046 158.273 318.609 158.398 319.063 158.648C319.521 158.898 319.866 159.241 320.099 159.679C320.335 160.114 320.452 160.608 320.452 161.162C320.452 161.722 320.335 162.219 320.099 162.653C319.863 163.088 319.515 163.43 319.055 163.68C318.594 163.928 318.028 164.051 317.354 164.051H315.185V162.751H317.141C317.533 162.751 317.854 162.683 318.104 162.547C318.354 162.411 318.539 162.223 318.658 161.984C318.781 161.746 318.842 161.472 318.842 161.162C318.842 160.852 318.781 160.58 318.658 160.344C318.539 160.108 318.353 159.925 318.1 159.794C317.85 159.661 317.528 159.594 317.133 159.594H315.684V167H314.103ZM321.826 167V158.273H325.098C325.769 158.273 326.331 158.389 326.786 158.622C327.243 158.855 327.588 159.182 327.821 159.602C328.057 160.02 328.175 160.507 328.175 161.064C328.175 161.624 328.056 162.109 327.817 162.521C327.581 162.93 327.233 163.247 326.773 163.472C326.313 163.693 325.748 163.804 325.077 163.804H322.746V162.491H324.864C325.256 162.491 325.577 162.437 325.827 162.33C326.077 162.219 326.262 162.058 326.381 161.848C326.503 161.635 326.564 161.374 326.564 161.064C326.564 160.754 326.503 160.49 326.381 160.271C326.259 160.05 326.073 159.882 325.823 159.768C325.573 159.652 325.25 159.594 324.855 159.594H323.407V167H321.826ZM326.334 163.045L328.495 167H326.73L324.608 163.045H326.334ZM331.211 158.273V167H329.63V158.273H331.211ZM332.923 158.273H334.858L337.449 164.597H337.551L340.142 158.273H342.077V167H340.56V161.004H340.479L338.067 166.974H336.933L334.521 160.991H334.44V167H332.923V158.273ZM344.919 167H343.232L346.304 158.273H348.256L351.332 167H349.645L347.314 160.062H347.246L344.919 167ZM344.974 163.578H349.577V164.848H344.974V163.578ZM346.688 157.412L347.642 155.464H349.151L347.842 157.412H346.688ZM352.482 167V158.273H355.755C356.425 158.273 356.988 158.389 357.442 158.622C357.9 158.855 358.245 159.182 358.478 159.602C358.713 160.02 358.831 160.507 358.831 161.064C358.831 161.624 358.712 162.109 358.473 162.521C358.238 162.93 357.89 163.247 357.429 163.472C356.969 163.693 356.404 163.804 355.733 163.804H353.402V162.491H355.52C355.912 162.491 356.233 162.437 356.483 162.33C356.733 162.219 356.918 162.058 357.037 161.848C357.159 161.635 357.221 161.374 357.221 161.064C357.221 160.754 357.159 160.49 357.037 160.271C356.915 160.05 356.729 159.882 356.479 159.768C356.229 159.652 355.907 159.594 355.512 159.594H354.063V167H352.482ZM356.99 163.045L359.151 167H357.387L355.265 163.045H356.99ZM361.868 158.273V167H360.287V158.273H361.868ZM364.7 167H363.013L366.085 158.273H368.037L371.114 167H369.426L367.095 160.062H367.027L364.7 167ZM364.756 163.578H369.358V164.848H364.756V163.578Z" fill="#01337B"/>
</svg>
