<svg width="198" height="198" viewBox="0 0 198 198" fill="none" xmlns="http://www.w3.org/2000/svg">
<rect width="198" height="198" fill="white"/>
<path d="M38 125C33.5817 125 30 121.418 30 117L30 91C30 86.5817 33.5817 83 38 83L176 83L176 117C176 121.418 172.418 125 168 125L38 125Z" fill="#03469B"/>
<path d="M53 77C53 72.5817 56.5817 69 61 69H168C172.418 69 176 72.5817 176 77V89H53V77Z" fill="#03469B"/>
<path d="M76 33C76 28.5817 79.5817 25 84 25H125C129.418 25 133 28.5817 133 33V75H76V33Z" fill="#03469B"/>
<path d="M76 125H133V165C133 169.418 129.418 173 125 173H84C79.5817 173 76 169.418 76 165V125Z" fill="#3B8FE6"/>
<rect x="56.8146" y="122.712" width="86.0632" height="48.8557" rx="24.4279" transform="rotate(-50 56.8146 122.712)" fill="#03459A"/>
<rect x="64.4238" y="122.583" width="76.156" height="37.3561" rx="18.6781" transform="rotate(-50 64.4238 122.583)" fill="white"/>
<path d="M92.1838 97.208L105.365 81.4995C110.231 75.7008 118.876 74.9444 124.674 79.8101V79.8101C130.473 84.6759 131.23 93.3211 126.364 99.1198L113.183 114.828L92.1838 97.208Z" fill="#03469B"/>
<rect x="51" y="46" width="12" height="12" rx="2" fill="#3B8FE6"/>
<rect x="36" y="58" width="12" height="12" rx="2" fill="#03469B"/>
<rect x="35" y="39" width="9" height="9" rx="2" fill="#03469B"/>
<rect x="21" y="49" width="9" height="9" rx="2" fill="#03469B"/>
<rect x="23" y="67" width="9" height="9" rx="2" fill="#03469B"/>
</svg>
